<?xml version="1.0" standalone="no"?>
<!DOCTYPE svg PUBLIC "-//W3C//DTD SVG 20010904//EN"
 "http://www.w3.org/TR/2001/REC-SVG-20010904/DTD/svg10.dtd">
<svg version="1.0" xmlns="http://www.w3.org/2000/svg"
 width="815.000000pt" height="815.000000pt" viewBox="0 0 815.000000 815.000000"
 preserveAspectRatio="xMidYMid meet">

<g transform="translate(0.000000,815.000000) scale(0.100000,-0.100000)"
fill="#04599f" stroke="none">
<path d="M3880 7674 c-295 -26 -483 -54 -681 -104 -1385 -349 -2433 -1480
-2673 -2882 -40 -229 -50 -357 -50 -613 0 -252 10 -378 49 -611 186 -1111 906
-2087 1915 -2599 407 -206 806 -323 1280 -376 148 -17 562 -17 710 0 474 53
873 170 1280 376 1009 512 1729 1488 1915 2599 39 233 49 359 49 611 0 256
-10 384 -50 613 -191 1117 -905 2086 -1914 2597 -397 201 -783 317 -1235 370
-126 15 -503 27 -595 19z m527 -2024 c324 -43 526 -140 668 -321 96 -122 134
-238 141 -429 5 -122 3 -145 -20 -232 -53 -208 -190 -365 -394 -454 l-73 -32
54 -17 c365 -115 572 -496 488 -900 -72 -348 -349 -569 -783 -625 -54 -7 -325
-10 -782 -8 l-700 3 3 1505 c2 1132 6 1507 14 1512 19 12 1294 10 1384 -2z"/>
<path d="M3902 5062 c-103 -37 -161 -120 -162 -229 0 -56 5 -72 60 -177 98
-187 113 -233 113 -356 1 -155 -30 -237 -178 -460 -45 -69 -88 -142 -95 -164
-17 -54 -9 -201 14 -246 52 -100 134 -166 242 -196 54 -14 75 -15 123 -7 85
16 148 48 201 103 68 70 94 128 98 222 5 103 -11 149 -104 288 -140 210 -177
303 -178 445 -1 119 14 174 88 315 27 52 58 113 70 135 40 79 15 219 -50 276
-67 59 -163 79 -242 51z"/>
</g>
</svg>
